<svg id="Layer_1" data-name="Layer 1" xmlns="http://www.w3.org/2000/svg" viewBox="0 0 904 1095.58"><defs><style>.cls-1{fill:#490f19;}.cls-2{fill:#e5d32c;}.cls-3{fill:#fff;}.cls-4,.cls-7{fill:none;}.cls-4{stroke:#000;}.cls-4,.cls-5,.cls-7{stroke-miterlimit:10;}.cls-5{fill:#e86e00;stroke:#e86e00;}.cls-6{font-size:130px;font-family:Georgia, Georgia;}.cls-7{stroke:#666;stroke-width:6px;}</style></defs><title>cocobean</title><path class="cls-1" d="M709,686c0-53.14-12.52-104.79-45.45-141.31a22.53,22.53,0,0,1-1.91-2.35c-1.07-1.55-4-4.61-4.64-5.34-46.73-57.21-99.35-71.83-182.57-53.88h0a294.08,294.08,0,0,0-33.46,9.11,290.4,290.4,0,0,0-44,18.9c-62.71,33.43-94.79,90.78-99.7,132.61a26.62,26.62,0,0,1-.76,4c-3.65,13.16-5.48,34-5.48,51.71C291,805.26,384.57,891,500,891h2a224.85,224.85,0,0,0,77-14.15l.37-.14C655.44,848.07,709,779.52,709,699.5c0-2,0-3.9-.1-5.83q0-.69,0-1.38Q709,689.17,709,686Z" transform="translate(-73 -40.42)"/><path class="cls-2" d="M444.27,478.52c-7.34,0-33.2-69.59-13.28-139.18,10-29.61,71.39-56.27,114.56-51.82,35.66,1.17,88-48.87,48.14-127.34C570.45,105.4,401.11,18,343.34,45.7l-.34.47c128.64-15.88,298.84,194,177.64,204.33h1.66c-109.57-7.4-174.32,125.85-83,233.94" transform="translate(-73 -40.42)"/><ellipse class="cls-3" cx="565.5" cy="841.5" rx="11" ry="14" transform="translate(-352.69 241.12) rotate(-22.57)"/><ellipse class="cls-3" cx="548.5" cy="869.5" rx="8" ry="17" transform="translate(-436.8 1303) rotate(-85.21)"/><ellipse class="cls-3" cx="595.5" cy="850.5" rx="17" ry="8" transform="translate(-502.51 644.79) rotate(-45.84)"/><path class="cls-4" d="M579.37,877.7l-.37.14" transform="translate(-73 -40.42)"/><path class="cls-5" d="M329.5,569.64c16.22-21.67,37.14-41.75,66-57.14,13.62-7.26,28.73-13.74,44-20,11.57-4.74,45-13,57-13-11.61,0-35,33-21,65-7.74,0-14-7.16-14-16-5.53,0-22,36-10,68-13.27,0-24-14.31-24-32-12.16,0-46,83-22,154-18.24,0-33-48.3-33-108-6.08,0-20,37-11,74-17.69,0-32-51.44-32-115" transform="translate(-73 -40.42)"/><text class="cls-6" transform="translate(149.92 990.86)">Coco Bean</text><line class="cls-7" x1="775" y1="955.08" x2="878" y2="955.08"/><line class="cls-7" x1="30" y1="955.08" x2="133" y2="955.08"/></svg>